# xmcd
#
# Track frame offsets: 
#        150
#        4295
#        30378
#        57615
#        76170
#        98290
#        122333
#        142678
#        165775
#        193230
#        215773
#        235850
#
# Disc length: 3221 seconds
#
# Revision: 0
# Processed by: cddbd v1.5.2PL0 Copyright (c) Steve Scherf et al.
# Submitted via: ExactAudioCopy v1.0b3
#
DISCID=8b0c930c
DTITLE=Duy Khanh - Xa Nguon Yeu Thuong
DYEAR=1991
DGENRE=
TTITLE0=Hoang Hoa - Loi gioi thieu
TTITLE1=Dem chon dau vuot bien
TTITLE2=Tren dao Galang nghe nguoi hat
TTITLE3=Duy Khanh, Huong Lan - Nhung neo duong Viet Nam
TTITLE4=Bong co may
TTITLE5=Le Uyen - Xa nguon yeu thuong
TTITLE6=Gio ve mien xuoi
TTITLE7=Chieu mot minh qua pho
TTITLE8=Duy Khanh, Thanh Huyen - Tinh yeu dat nuoc
TTITLE9=Giao Linh - Que huong bo lai
TTITLE10=Di giua que huong
TTITLE11=Hoang Hoa - Loi cam ta
EXTD=
EXTT0=
EXTT1=
EXTT2=
EXTT3=
EXTT4=
EXTT5=
EXTT6=
EXTT7=
EXTT8=
EXTT9=
EXTT10=
EXTT11=
PLAYORDER=
